# xmcd CD database file
#
# Track frame offsets:
#	150
#	17434
#	31673
#	52879
#	74326
#	88930
#	110521
#	127393
#
# Disc length: 1943 seconds
#
# Revision: 0
# Processed by: cddbd v1.5.2PL0 Copyright (c) Steve Scherf et al.
# Submitted via: CDex 1.51
#
DISCID=66079508
DTITLE=Kate Lush - Kate Lush
DYEAR=2016
DGENRE=Blues
TTITLE0=Groove Me
TTITLE1=Tired Of My Tears
TTITLE2=Do You Know What Love Is
TTITLE3=Dust My Broom
TTITLE4=Loving You Is Sweeter Than Ever
TTITLE5=True Fire 
TTITLE6=When You Pray
TTITLE7=Kate Lush - Set Me Free 
EXTD=YEAR: 2016
EXTT0=
EXTT1=
EXTT2=
EXTT3=
EXTT4=
EXTT5=
EXTT6=
EXTT7=
PLAYORDER=
